<svg xmlns="http://www.w3.org/2000/svg" viewBox="0 0 32 32" width="32" height="32">
  <path fill-rule="evenodd" clip-rule="evenodd" d="M1.4 27.5c3.35-.8 3.48-4.54 3.48-4.54s2.54-.27 2.54-2.94a5.35 5.35 90 00-3.35-.53c-.67-2.14 4.68-3.48 8.15.67.53 1.21-4.81 2.54-4.01 3.88s7.22 2.67 7.22-1.34c4.01 4.01 9.36 2.67 13.37-1.34 5.35-5.35 2.67-9.36 1.34-10.69-4.01-4.01-12.03-5.35-17.38-5.35C2.73 3.31 8.75 6.66 5.54 7.86 2.06 9.33-1.41 14.95 1.13 21.23A4.68 4.68 90 001.4 27.5ZM19 19a1 1 90 010-4 1 1 90 010 4z" fill="#0f0f13"/>
</svg>
