<svg xmlns="http://www.w3.org/2000/svg" viewBox="0 0 36 36" xml:space="preserve">
  <path fill-rule="evenodd" clip-rule="evenodd" d="M1.57 30.94c3.77-.9 3.92-5.11 3.92-5.11s2.86-.3 2.86-3.31a6.02 6.02 90 0 0-3.77-.6c-.75-2.41 5.26-3.92 9.17.75.6 1.36-5.41 2.86-4.51 4.37s8.12 3 8.12-1.51c4.51 4.51 10.53 3 15.04-1.51 6.02-6.02 3-10.53 1.51-12.03-4.51-4.51-13.53-6.02-19.55-6.02C3.08 3.71 9.85 7.48 6.24 8.83c-3.92 1.65-7.82 7.98-4.96 15.04a5.26 5.26 90 0 0 .3 7.05Zm19.8-9.56a1 1 0 0 1 0-4.5 1 1 0 0 1 0 4.5Z" fill="#0f0f13"/>
</svg>